<?xml version="1.0" standalone="no"?>
<!DOCTYPE svg PUBLIC "-//W3C//DTD SVG 20010904//EN"
 "http://www.w3.org/TR/2001/REC-SVG-20010904/DTD/svg10.dtd">
<svg version="1.0" xmlns="http://www.w3.org/2000/svg"
 width="32.000000pt" height="32.000000pt" viewBox="0 0 32.000000 32.000000"
 preserveAspectRatio="xMidYMid meet">

<g transform="translate(0.000000,32.000000) scale(0.100000,-0.100000)"
fill="#000000" stroke="none">
<path d="M230 287 c0 -17 41 -57 59 -57 8 0 11 12 9 33 -3 28 -7 32 -35 35
-23 2 -33 -1 -33 -11z"/>
<path d="M175 278 c-32 -18 -76 -61 -92 -91 -8 -16 -13 -30 -11 -30 2 -1 24
-21 49 -45 l45 -43 42 31 c61 44 104 120 69 120 -16 0 -57 42 -57 58 0 15 -19
15 -45 0z m30 -74 c19 -20 16 -43 -7 -58 -35 -22 -74 27 -48 59 16 19 35 19
55 -1z"/>
<path d="M154 189 c-3 -6 0 -18 9 -26 18 -18 37 -9 37 18 0 21 -34 27 -46 8z"/>
<path d="M47 253 c-24 -6 -18 -34 9 -44 17 -6 26 -1 43 22 l22 29 -28 -1 c-15
-1 -36 -3 -46 -6z"/>
<path d="M40 132 c0 -10 83 -92 93 -92 19 0 4 39 -26 68 -30 30 -67 43 -67 24z"/>
<path d="M229 97 c-22 -18 -25 -26 -18 -44 13 -35 37 -28 45 11 9 50 3 57 -27
33z"/>
<path d="M49 53 c-13 -16 -12 -17 4 -4 16 13 21 21 13 21 -2 0 -10 -8 -17 -17z"/>
</g>
</svg>
