<?xml version="1.0" standalone="no"?>
<!DOCTYPE svg PUBLIC "-//W3C//DTD SVG 20010904//EN"
 "http://www.w3.org/TR/2001/REC-SVG-20010904/DTD/svg10.dtd">
<svg version="1.0" xmlns="http://www.w3.org/2000/svg"
 width="512.000000pt" height="512.000000pt" viewBox="0 0 512.000000 512.000000"
 preserveAspectRatio="xMidYMid meet">

<g transform="translate(0.000000,512.000000) scale(0.100000,-0.100000)"
fill="#000000" stroke="none">
<path d="M640 4307 c-49 -16 -133 -102 -148 -153 -17 -60 -17 -2488 0 -2548
16 -55 99 -138 154 -154 32 -9 473 -12 1916 -12 2115 0 1933 -7 2011 80 24 26
49 66 55 88 17 57 17 2487 0 2544 -6 22 -31 62 -55 88 -78 87 106 80 -2017 79
-1341 -1 -1891 -4 -1916 -12z m3680 -1427 l0 -1120 -1760 0 -1760 0 0 1120 0
1120 1760 0 1760 0 0 -1120z"/>
<path d="M160 960 l0 -160 2400 0 2400 0 0 160 0 160 -2400 0 -2400 0 0 -160z"/>
</g>
</svg>
